<svg width="520" height="335" viewBox="0 0 520 335" fill="none" xmlns="http://www.w3.org/2000/svg">
<path d="M221.219 50.561C221.219 36.4955 215.102 25.4377 209.631 13.0035C208.196 9.74051 206.161 8.12052 204.044 5.39891C201.58 2.23069 203.404 7.18277 202.389 8.4511C198.796 12.9425 195.704 18.4779 191.887 23.143C187.774 28.1707 185.493 34.039 181.696 38.9213C180.213 40.8277 175.628 37.282 173.833 36.1277C170.92 34.2554 168.285 34.731 164.625 34.731C155 34.731 145.336 38.2988 136.017 40.3698C132.654 41.1171 129.37 43.1116 125.774 43.1116C123.139 43.1116 121.88 36.0972 120.859 33.7998C117.54 26.3309 118.155 17.0953 112.272 10.5204C110.47 8.50699 108.239 6.04056 106.685 3.79522C103.787 -0.389866 102.695 3.33539 99.7525 6.27836C95.2714 10.7595 93.7336 16.9846 91.0615 22.6257C89.0162 26.9436 88.0611 33.7243 88.0611 38.4557C88.0611 44.0006 88.9345 47.724 82.474 48.6469C75.7245 49.6111 69.7566 56.677 62.9193 57.0792C54.2466 57.5894 43.1055 59.4744 34.7771 61.942C24.9159 64.8639 12.1826 64.0195 8.9628 75.2889C6.0371 85.5288 18.3606 89.6704 26.1378 89.6704C33.1217 89.6704 40.1055 89.6704 47.0893 89.6704C55.2801 89.6704 63.0478 86.8769 71.2999 86.8769C79.8907 86.8769 100.161 83.6643 106.892 90.3947C110.152 93.6551 110.812 98.5135 107.15 101.362C99.3862 107.4 88.9159 105.5 79.6288 105.5C70.3342 105.5 61.0397 105.5 51.7452 105.5C47.1909 105.5 42.5021 111.011 41.554 115.278C39.1873 125.928 55.031 133.104 63.6436 133.436C71.0782 133.722 78.9881 134.367 86.716 134.367C95.1795 134.367 104.431 131.037 112.789 132.556C119.869 133.843 124.688 147.932 126.032 153.715C126.912 157.496 129.481 164.165 133.689 164.165" stroke="#B6CFB6" stroke-width="3"/>
<path d="M221 48C221 49.8708 230.391 51.4168 235.264 53.1448C241.947 55.5145 249.922 57.9015 258.964 60.1212C264.201 61.4068 271.684 62.3106 279.153 63.3939C284.096 64.111 291.68 64.9606 292.1 65.9394C292.639 67.1974 298.025 68.2913 298.025 69.5758C298.025 70.3583 300 71.1625 300 72" stroke="#B6CFB6" stroke-width="3"/>
<path d="M75.0249 87.8081V93.3952" stroke="#B6CFB6" stroke-width="3"/>
<path d="M85.2676 87.8081V93.3952" stroke="#B6CFB6" stroke-width="3"/>
<path d="M76.8872 100.845V105.5" stroke="#B6CFB6" stroke-width="3"/>
<path d="M84.3364 101.776V105.5" stroke="#B6CFB6" stroke-width="3"/>
<path d="M92.7173 101.776C92.7173 103.39 92.7528 104.157 93.6485 105.5" stroke="#B6CFB6" stroke-width="3"/>
<path d="M93.6484 89.6704C93.6484 91.3252 93.9071 92.0501 94.5796 93.3951" stroke="#B6CFB6" stroke-width="3"/>
<path d="M202.596 28.2128C202.596 30.9191 208.361 40.3302 203.993 41.301C200.601 42.0547 200.574 42.7519 199.078 39.3869C197.542 35.9304 201.407 36.5934 203.527 36.5934" stroke="#B6CFB6" stroke-width="3"/>
<path d="M101.098 27.2816C101.251 28.6635 110.179 43.1116 104.357 43.1116C99.0909 43.1116 97.4284 35.6622 103.891 35.6622" stroke="#B6CFB6" stroke-width="3"/>
<path d="M84.3364 63.5975C84.3364 57.9704 88.5131 57.0792 93.2343 57.0792C98.3329 57.0792 100.166 59.3341 100.166 64.5286" stroke="#B6CFB6" stroke-width="3"/>
<path d="M117.859 64.5287C117.859 62.1165 117.182 60.3141 119.722 59.4072C121.128 58.9048 125.676 56.2554 126.964 57.2862C130.707 60.2803 130.896 61.1359 130.896 66.391" stroke="#B6CFB6" stroke-width="3"/>
<path d="M132.677 163.193C132.677 172.799 132.681 181.084 128.021 189.473C123.389 197.811 119.759 206.265 113.95 213.942C108.485 221.164 102.627 228.442 96.7745 235.359C90.2886 243.024 84.1024 250.859 78.4614 259.104C74.1111 265.462 65.6294 270.746 59.5792 275.451C55.7701 278.414 52.3753 283.81 48.3534 286.108C45.6136 287.674 44.5981 290.639 41.2143 290.764C38.7896 290.854 31.2455 292.078 30.0402 294.489C27.5791 299.411 27.4536 303.467 27.4536 308.922C27.4536 318.269 46.4377 319.63 53.061 319.63C55.2544 319.63 57.2961 320.103 58.9067 318.492C61.0011 316.398 60.6641 313.663 63.5626 312.388C65.7166 311.44 65.3819 307.426 68.891 306.646C70.6037 306.265 70.8237 304.913 72.2536 303.8C74.2928 302.214 77.2585 301.382 79.0822 299.558C81.4868 297.154 84.4826 292.033 86.3247 288.902C88.2509 285.627 91.25 281.845 93.5672 278.866C96.3456 275.293 98.6318 271.382 101.482 267.898C105.122 263.45 107.148 256.869 111.26 253.051C118.217 246.591 122.769 236.535 128.228 228.893C132.124 223.437 134.611 217.733 139.143 212.597C143.574 207.575 144.457 202.661 147.11 196.767C148.005 194.778 151.033 190.309 151.3 194.853C151.451 197.415 154.5 198.458 156.887 198.578C162.168 198.842 166.47 201.914 171.269 203.285C171.693 203.406 163.053 215.434 162.474 216.735C155.913 231.499 148.37 245.013 140.126 258.897C132.423 271.87 124.278 284.3 117.312 297.696C116.052 300.12 113.834 306.399 111.984 308.249C110.923 309.31 105.307 309.008 103.81 309.388C101.422 309.993 96.5736 310.816 95.2226 313.112C93.0147 316.866 92.8012 316.478 93.6189 320.976C94.1951 324.144 96.603 324.286 99.206 324.286C105.052 324.286 111.412 325.083 114.777 330.805C116.234 333.282 118.368 332.667 121.037 332.667C124.281 332.667 126.721 330.805 129.417 330.805C134.073 330.805 145.03 327.643 145.713 321.493C146.046 318.499 148.507 315.807 148.507 312.647C148.507 308.921 150.874 303.251 151.817 299.61C154.313 289.984 159.276 281.077 164.75 272.865C167.884 268.165 170.943 263.219 174.114 258.638C175.875 256.094 177.036 253.222 178.822 250.672C180.647 248.063 181.947 243.484 184.305 241.463C185.58 240.371 185.584 238.468 185.961 236.963C186.659 234.169 188.806 230.988 190.41 228.582C192.131 225.999 193.956 223.196 194.134 219.995C194.374 215.679 195.531 219.53 196.048 221.34C196.602 223.277 207.472 223.941 209.033 224.185C225.387 226.74 243.894 227.326 260.248 224.857C266.592 223.9 273.346 224.412 279.751 223.771C290.374 222.709 301.367 219.635 311.463 216.27C325.078 211.731 338.976 207.72 352.434 203.233" stroke="#B6CFB6" stroke-width="3"/>
<path d="M299.357 70.0751C304.235 70.0751 310.779 72.565 315.187 74.5241C319.303 76.3532 327.479 77.5245 331.948 77.5245C350.887 77.5245 369.425 82.7033 387.819 87.3019C400.623 90.5028 415.253 91.8633 428.118 88.6469C437.587 86.2798 451.649 83.8019 459.313 77.3176C461.906 75.1235 468.031 74.4501 469.763 71.4201C470.823 69.5645 474.928 67.6006 476.902 66.3504C481.447 63.4713 486.494 61.3507 491.076 58.4871C493.264 57.1196 496.337 54.2451 499.095 54.2451C505.348 54.2451 511.296 52.5302 516.528 57.7629C521.159 62.394 511.624 68.254 508.665 70.0751C506.105 71.6503 503.158 72.9836 500.491 74.3171C496.632 76.2469 494.076 80.2121 490.248 82.1804C482.563 86.1328 474.346 93.1324 468.107 99.1485C461.25 105.761 453.053 110.622 446.949 118.082C445.098 120.344 443.45 122.572 441.62 124.808C439.303 127.64 443.892 136.763 444.672 140.275C445.848 145.567 450.991 152.52 453.933 157.192C456.626 161.47 458.79 165.753 461.899 169.711C465.078 173.757 507.132 192.837 501.216 200.233C498.008 204.242 493.074 206.918 488.386 209.027C484.253 210.887 478.442 212.427 473.953 213.425C471.439 213.983 469.906 215.697 469.763 211.821C469.663 209.127 468.327 206.28 467.848 203.647C467.119 199.634 464.673 199.588 461.589 197.646C453.271 192.409 446.557 184.707 438.103 179.54C433.799 176.91 430.709 175.354 427.135 171.78C424.443 169.088 424.59 166.106 422.686 163.658C420.972 161.455 420.729 158.442 418.755 156.468C418.32 156.033 418.504 157.481 417.979 158.123C415.605 161.024 412.076 163.373 409.288 165.883C405.512 169.281 401.715 171.747 397.131 174.16C396.003 174.754 408.4 185.636 410.115 187.352C412.733 189.97 416.987 192.556 418.548 195.991C419.94 199.053 420.789 202.378 422.479 205.303C424.305 208.462 427.057 214.663 429.929 216.684C434.17 219.668 439.545 225.582 445.086 225.582C449.43 225.582 449.838 225.866 447.207 229.306C443.628 233.987 439.011 241.216 433.447 243.998C431.448 244.997 429.72 245.136 427.394 245.136C425.039 245.136 424.485 243.274 422.273 243.274C415.772 243.274 411.066 241.59 410.219 233.962C409.609 228.474 411.905 220.423 409.236 215.753C405.166 208.63 391.964 203.178 385.543 199.509C383.019 198.067 381.685 194.853 378.507 194.853C375.24 194.853 373.881 195.241 371.058 196.25C368.398 197.199 366.29 197.89 363.815 199.509C359.74 202.174 355.503 201.371 350.572 201.371" stroke="#B6CFB6" stroke-width="3"/>
<path d="M419.479 230.238C419.479 232.624 418.385 240.399 420.41 241.412" stroke="#B6CFB6" stroke-width="3"/>
<path d="M431.584 230.238C431.584 233.624 435.79 240.33 439.034 241.412" stroke="#B6CFB6" stroke-width="3"/>
<path d="M478.143 197.646C478.143 203.016 480.659 204.541 482.799 208.82" stroke="#B6CFB6" stroke-width="3"/>
<path d="M32 68.5C32 73.4706 29.8888 74.5 20.5 74.5C11.1112 74.5 0 73.4706 0 68.5C0 63.5294 6.11116 61 15.5 61C24.8888 61 32 63.5294 32 68.5Z" fill="#B6CFB6" fill-opacity="0.984314"/>
</svg>
